<svg xmlns="http://www.w3.org/2000/svg" viewBox="0 0 264 64" width="264" height="64" role="img" aria-label="gotifacts">
  <g fill="none" stroke="#16a34a" stroke-width="3.6" stroke-linejoin="round" stroke-linecap="round">
    <path d="M55 13 L9 31 L28 37 L34 53 L40 39 Z"/>
    <path d="M55 13 L28 37"/>
  </g>
  <path transform="translate(78.20 43.28)" d="M12.80 9.32Q8.55 9.32 5.96 7.70Q3.37 6.08 2.77 3.07L8.81 2.36Q9.13 3.76 10.19 4.55Q11.26 5.35 12.98 5.35Q15.49 5.35 16.65 3.80Q17.81 2.26 17.81-0.79L17.81-2.02L17.85-4.32L17.81-4.32Q15.81-0.04 10.33-0.04Q6.27-0.04 4.04-3.09Q1.80-6.14 1.80-11.82Q1.80-17.51 4.10-20.60Q6.40-23.70 10.79-23.70Q15.86-23.70 17.81-19.51L17.92-19.51Q17.92-20.26 18.01-21.55Q18.11-22.84 18.22-23.25L23.93-23.25Q23.80-20.93 23.80-17.87L23.80-0.71Q23.80 4.25 20.99 6.79Q18.18 9.32 12.80 9.32M17.85-11.95Q17.85-15.53 16.58-17.54Q15.30-19.55 12.93-19.55Q8.10-19.55 8.10-11.82Q8.10-4.23 12.89-4.23Q15.30-4.23 16.58-6.24Q17.85-8.25 17.85-11.95M52.04-11.64Q52.04-5.99 48.90-2.78Q45.76 0.43 40.22 0.43Q34.78 0.43 31.69-2.79Q28.60-6.02 28.60-11.64Q28.60-17.25 31.69-20.46Q34.78-23.68 40.35-23.68Q46.04-23.68 49.04-20.57Q52.04-17.47 52.04-11.64M45.72-11.64Q45.72-15.79 44.37-17.66Q43.01-19.53 40.43-19.53Q34.93-19.53 34.93-11.64Q34.93-7.76 36.28-5.73Q37.62-3.70 40.15-3.70Q45.72-3.70 45.72-11.64M62.78 0.39Q60.11 0.39 58.67-1.06Q57.23-2.51 57.23-5.46L57.23-19.16L54.29-19.16L54.29-23.25L57.54-23.25L59.43-28.70L63.21-28.70L63.21-23.25L67.61-23.25L67.61-19.16L63.21-19.16L63.21-7.09Q63.21-5.39 63.85-4.59Q64.50-3.78 65.85-3.78Q66.56-3.78 67.87-4.08L67.87-0.34Q65.63 0.39 62.78 0.39M77.52-27.44L71.48-27.44L71.48-31.88L77.52-31.88L77.52-27.44M77.52 0L71.48 0L71.48-23.25L77.52-23.25L77.52 0M95.37-19.16L90.79-19.16L90.79 0L84.78 0L84.78-19.16L81.38-19.16L81.38-23.25L84.78-23.25L84.78-25.67Q84.78-28.83 86.45-30.36Q88.13-31.88 91.54-31.88Q93.24-31.88 95.37-31.54L95.37-27.65Q94.49-27.84 93.61-27.84Q92.06-27.84 91.43-27.23Q90.79-26.62 90.79-25.07L90.79-23.25L95.37-23.25L95.37-19.16M103.73 0.43Q100.35 0.43 98.46-1.41Q96.57-3.24 96.57-6.57Q96.57-10.18 98.92-12.07Q101.28-13.96 105.75-14.01L110.75-14.09L110.75-15.28Q110.75-17.55 109.96-18.66Q109.16-19.77 107.36-19.77Q105.68-19.77 104.90-19Q104.11-18.24 103.92-16.48L97.63-16.78Q98.21-20.17 100.73-21.92Q103.25-23.68 107.62-23.68Q112.02-23.68 114.40-21.51Q116.79-19.34 116.79-15.34L116.79-6.87Q116.79-4.92 117.23-4.18Q117.67-3.44 118.70-3.44Q119.39-3.44 120.03-3.57L120.03-0.30Q119.50-0.17 119.07-0.06Q118.64 0.04 118.21 0.11Q117.78 0.17 117.29 0.21Q116.81 0.26 116.17 0.26Q113.89 0.26 112.80-0.86Q111.72-1.98 111.50-4.15L111.38-4.15Q108.84 0.43 103.73 0.43M110.75-9.58L110.75-10.76L107.66-10.72Q105.55-10.63 104.67-10.26Q103.79-9.88 103.33-9.11Q102.87-8.34 102.87-7.05Q102.87-5.39 103.63-4.59Q104.39-3.78 105.66-3.78Q107.08-3.78 108.25-4.55Q109.42-5.33 110.09-6.69Q110.75-8.06 110.75-9.58M132.52 0.43Q127.23 0.43 124.35-2.72Q121.47-5.87 121.47-11.49Q121.47-17.25 124.37-20.46Q127.27-23.68 132.60-23.68Q136.71-23.68 139.39-21.61Q142.08-19.55 142.76-15.92L136.68-15.62Q136.43-17.40 135.39-18.47Q134.36-19.53 132.47-19.53Q127.81-19.53 127.81-11.73Q127.81-3.70 132.56-3.70Q134.28-3.70 135.44-4.78Q136.60-5.87 136.88-8.01L142.94-7.73Q142.61-5.35 141.23-3.48Q139.84-1.61 137.59-0.59Q135.33 0.43 132.52 0.43M153.25 0.39Q150.58 0.39 149.14-1.06Q147.71-2.51 147.71-5.46L147.71-19.16L144.76-19.16L144.76-23.25L148.01-23.25L149.90-28.70L153.68-28.70L153.68-23.25L158.08-23.25L158.08-19.16L153.68-19.16L153.68-7.09Q153.68-5.39 154.32-4.59Q154.97-3.78 156.32-3.78Q157.03-3.78 158.34-4.08L158.34-0.34Q156.11 0.39 153.25 0.39M181.54-6.79Q181.54-3.42 178.78-1.49Q176.02 0.43 171.14 0.43Q166.35 0.43 163.81-1.08Q161.26-2.60 160.42-5.80L165.73-6.60Q166.18-4.94 167.29-4.25Q168.39-3.57 171.14-3.57Q173.68-3.57 174.84-4.21Q176-4.86 176-6.23Q176-7.35 175.07-8Q174.13-8.66 171.90-9.11Q166.78-10.12 165-10.99Q163.22-11.86 162.28-13.25Q161.35-14.63 161.35-16.65Q161.35-19.98 163.92-21.84Q166.48-23.70 171.19-23.70Q175.33-23.70 177.86-22.09Q180.38-20.47 181.01-17.42L175.66-16.87Q175.40-18.28 174.39-18.98Q173.38-19.68 171.19-19.68Q169.04-19.68 167.96-19.13Q166.89-18.58 166.89-17.29Q166.89-16.29 167.72-15.69Q168.54-15.10 170.50-14.72Q173.23-14.16 175.34-13.57Q177.46-12.98 178.74-12.16Q180.02-11.34 180.78-10.07Q181.54-8.79 181.54-6.79" fill="#ffffff"/>
</svg>
